<?xml version="1.0" standalone="no"?>
<!DOCTYPE svg PUBLIC "-//W3C//DTD SVG 20010904//EN"
 "http://www.w3.org/TR/2001/REC-SVG-20010904/DTD/svg10.dtd">
<svg version="1.0" xmlns="http://www.w3.org/2000/svg"
 width="300.000000pt" height="261.000000pt" viewBox="0 0 300.000000 261.000000"
 preserveAspectRatio="xMidYMid meet">
<metadata>
Created by potrace 1.10, written by Peter Selinger 2001-2011
</metadata>
<g transform="translate(0.000000,261.000000) scale(0.100000,-0.100000)"
fill="#000000" stroke="none">
<path d="M1584 2314 c4 -16 12 -33 18 -39 7 -7 9 -3 5 13 -5 21 -3 22 73 22
42 0 99 -3 125 -7 l47 -6 -6 -41 c-3 -23 -9 -58 -12 -78 -5 -28 -3 -38 7 -38
10 0 10 -3 3 -8 -6 -4 -8 -15 -5 -26 6 -15 11 -8 25 30 9 27 22 59 27 72 l9
23 26 -30 c14 -17 30 -31 36 -31 6 0 -7 19 -29 43 -21 23 -47 56 -58 74 -21
36 -36 40 -194 50 l-104 6 7 -29z"/>
<path d="M1390 2303 c-257 -28 -445 -118 -631 -303 -105 -104 -213 -254 -193
-268 5 -4 18 -20 27 -35 10 -16 37 -40 60 -55 23 -15 67 -45 97 -68 30 -22 63
-43 73 -47 10 -4 15 -11 12 -17 -3 -6 0 -7 9 -4 20 8 71 -24 169 -103 43 -35
83 -63 90 -63 7 -1 31 -5 55 -9 50 -10 55 -1 10 18 -91 38 -127 58 -173 96
-67 56 -122 90 -170 106 -45 15 -120 66 -194 135 -49 46 -50 47 -36 75 33 62
84 128 165 213 184 191 396 290 666 311 57 4 94 3 98 -3 3 -5 8 -57 12 -115 5
-91 3 -114 -15 -164 -17 -51 -27 -119 -21 -148 1 -5 2 -17 1 -26 -1 -9 5 -16
13 -16 9 0 16 16 20 48 4 27 13 67 21 90 23 63 21 281 -2 317 -10 15 -22 30
-28 34 -10 8 -70 8 -135 1z"/>
<path d="M1603 2218 c-5 -10 -15 -9 106 -13 57 -2 100 -1 97 3 -10 9 -197 18
-203 10z"/>
<path d="M1350 2183 c-278 -42 -527 -209 -665 -446 -42 -72 -22 -69 24 4 48
77 67 101 125 159 171 172 306 234 601 278 l60 9 -60 0 c-33 0 -71 -1 -85 -4z"/>
<path d="M1875 2097 c-19 -42 -35 -79 -35 -84 -1 -12 -52 -65 -88 -90 -36 -26
-90 -30 -98 -8 -4 8 -10 15 -15 15 -6 0 -5 -8 0 -19 8 -14 7 -22 -4 -31 -12
-10 -15 -9 -15 9 0 11 -4 21 -10 21 -13 0 -13 -13 2 -45 12 -27 38 -34 38 -11
0 22 27 38 52 31 l22 -8 -28 -23 c-15 -13 -22 -24 -15 -24 6 0 28 19 49 43
l38 42 68 -33 c161 -79 289 -213 361 -377 42 -96 56 -171 57 -297 0 -60 4
-108 8 -108 14 0 8 209 -8 283 -28 124 -104 262 -200 362 -51 54 -191 155
-213 155 -5 0 -22 5 -36 10 l-27 10 36 45 c20 24 51 76 68 115 17 38 35 70 41
70 14 0 113 -57 177 -102 113 -80 257 -241 326 -364 46 -82 90 -210 105 -304
11 -75 7 -318 -7 -374 -5 -20 -3 -27 4 -22 6 3 14 21 17 39 4 17 14 47 22 65
13 26 15 57 10 150 -13 283 -138 534 -371 748 -79 72 -222 168 -269 179 -26 7
-29 4 -62 -68z"/>
<path d="M1618 2068 c-5 -27 -3 -28 32 -28 21 0 52 -3 69 -6 20 -4 31 -3 31 5
0 6 -19 11 -47 11 -52 0 -67 7 -75 30 -3 9 -7 5 -10 -12z"/>
<path d="M1890 2052 c0 -4 35 -26 78 -49 43 -23 97 -60 120 -81 23 -22 42 -38
42 -35 0 2 19 -16 43 -40 150 -159 228 -331 249 -552 9 -99 8 -133 -4 -193
-17 -84 -6 -110 13 -28 17 76 6 290 -19 384 -43 158 -141 322 -255 429 -84 78
-267 192 -267 165z"/>
<path d="M1305 2001 c-97 -24 -169 -56 -245 -110 -83 -58 -137 -107 -167 -151
-72 -106 -83 -126 -82 -145 0 -19 1 -19 9 3 17 42 87 137 141 190 110 110 249
182 398 207 47 8 97 16 111 18 14 2 -2 4 -35 5 -33 0 -91 -8 -130 -17z"/>
<path d="M1454 1798 c4 -46 12 -87 18 -93 7 -7 9 0 4 24 -3 18 -6 60 -6 92 0
37 -4 59 -11 59 -8 0 -10 -24 -5 -82z"/>
<path d="M1283 1863 l-31 -4 5 -62 c8 -103 23 -135 19 -40 -3 75 -2 82 17 87
36 9 57 -11 58 -57 1 -46 7 -88 14 -96 7 -6 6 64 -1 127 -7 56 -4 54 -81 45z"/>
<path d="M1596 1795 c-9 -13 -16 -32 -15 -42 0 -13 3 -11 10 7 14 35 29 9 29
-52 0 -26 5 -50 10 -53 6 -4 10 25 10 79 0 93 -12 110 -44 61z"/>
<path d="M532 1677 c-31 -54 -70 -159 -94 -254 -17 -69 -22 -119 -22 -233 0
-169 20 -266 85 -414 37 -81 145 -256 168 -270 5 -4 19 -26 31 -51 13 -27 57
-78 108 -126 71 -67 105 -90 187 -129 244 -115 458 -145 689 -98 95 19 131 35
56 24 -149 -21 -234 -27 -305 -22 -99 6 -196 26 -189 37 2 5 -8 11 -23 14
-119 23 -284 103 -391 188 -64 52 -122 113 -122 129 0 3 13 11 29 18 16 6 37
20 46 30 16 17 13 18 -54 14 -62 -3 -71 -1 -76 16 -4 11 -17 33 -30 48 -40 47
-122 212 -149 301 -58 184 -55 427 6 606 37 110 70 176 85 171 11 -4 11 -1 3
14 -14 26 -15 26 -38 -13z"/>
<path d="M1112 1663 l-62 -4 2 -52 c2 -29 7 -54 11 -56 4 -2 30 -1 58 3 32 4
56 3 64 -4 8 -7 16 -46 20 -96 6 -65 11 -84 22 -84 12 0 13 3 4 14 -6 8 -11
18 -9 22 6 23 -16 131 -29 147 -10 10 -31 17 -54 17 -52 0 -69 9 -69 35 0 31
6 34 91 41 41 3 81 10 89 15 15 9 -9 9 -138 2z"/>
<path d="M612 1594 c-29 -58 -71 -188 -82 -257 -13 -80 -13 -225 0 -306 22
-131 97 -305 176 -404 67 -84 73 -70 8 19 -138 187 -204 429 -174 643 7 47 13
91 14 98 1 7 5 16 9 19 4 4 7 17 7 28 1 28 56 158 72 167 10 6 10 11 1 20 -9
9 -16 2 -31 -27z"/>
<path d="M1712 1610 c73 -19 120 -45 158 -85 21 -22 25 -36 25 -89 0 -52 -5
-70 -28 -104 -28 -43 -24 -57 7 -23 22 25 45 87 46 125 0 46 -38 114 -80 142
-40 27 -129 54 -170 53 -14 0 5 -9 42 -19z"/>
<path d="M1532 1549 l-24 -29 52 0 c61 0 111 -19 134 -51 9 -13 16 -18 16 -12
0 6 -13 25 -29 41 -22 22 -43 31 -81 36 -45 6 -50 9 -45 26 8 26 4 25 -23 -11z"/>
<path d="M747 1473 c-83 -188 -74 -433 24 -624 12 -24 37 -65 56 -93 18 -27
32 -55 29 -62 -3 -7 2 -10 15 -7 25 7 25 8 -14 56 -89 111 -147 272 -150 417
-3 126 11 205 58 318 27 65 12 61 -18 -5z"/>
<path d="M1469 1513 c-24 -30 -40 -63 -30 -63 10 0 54 70 48 76 -2 2 -10 -4
-18 -13z"/>
<path d="M1428 1428 c-5 -12 7 -119 12 -108 1 3 3 26 5 52 2 47 -8 82 -17 56z"/>
<path d="M1710 1410 c0 -66 -53 -120 -121 -122 -16 -1 -32 -5 -35 -10 -10 -15
70 -5 101 14 49 28 93 126 64 143 -5 4 -9 -8 -9 -25z"/>
<path d="M1178 1104 c2 -138 -1 -200 -9 -210 -8 -10 -9 -14 0 -14 24 0 30 53
24 223 -7 195 -8 192 63 177 83 -17 104 -19 104 -11 0 6 -138 31 -175 31 -6 0
-9 -70 -7 -196z"/>
<path d="M1456 1280 c14 -14 76 -31 69 -19 -4 5 0 10 7 10 16 2 -39 16 -66 18
-14 1 -17 -2 -10 -9z"/>
<path d="M1400 1260 c0 -3 26 -11 58 -19 31 -7 81 -21 110 -31 29 -11 73 -22
98 -26 24 -3 46 -10 49 -14 3 -5 -4 -29 -15 -55 -11 -26 -20 -55 -20 -64 0
-10 -33 -50 -74 -89 l-74 -72 -81 0 -81 0 0 128 c-1 96 -3 122 -11 108 -16
-26 -7 -219 10 -240 10 -12 32 -16 91 -16 69 0 81 3 117 29 23 16 53 46 68 65
16 22 36 36 49 36 19 0 21 6 23 59 1 33 7 69 13 81 18 34 0 44 -147 80 -73 18
-133 35 -133 39 0 3 -11 6 -25 6 -14 0 -25 -2 -25 -5z"/>
<path d="M1839 1246 c7 -9 10 -16 5 -17 -18 -1 32 -18 56 -18 31 -1 17 13 -35
34 -35 15 -38 15 -26 1z"/>
<path d="M1895 1183 c8 -8 56 -26 215 -80 19 -7 -55 -41 -91 -42 -14 -1 -39
-5 -55 -10 -16 -5 -55 -12 -86 -16 -32 -4 -58 -11 -58 -16 0 -6 9 -7 22 -3 12
3 57 6 100 6 54 -1 94 4 127 17 62 23 129 15 196 -25 28 -17 76 -42 108 -57
68 -31 70 -41 32 -148 -74 -212 -247 -422 -438 -531 -29 -16 -43 -27 -32 -23
46 14 164 89 214 135 29 28 57 50 62 50 5 0 9 5 9 10 0 6 7 10 15 10 8 0 15
-4 15 -10 0 -5 -4 -10 -10 -10 -5 0 -10 -5 -10 -12 0 -18 37 21 86 89 55 77
114 194 143 284 l22 67 -21 35 c-17 29 -47 49 -147 102 -69 36 -131 64 -138
61 -7 -2 -22 8 -33 24 -13 17 -44 37 -79 50 -31 11 -61 24 -67 28 -6 4 -23 7
-37 8 -14 1 -36 5 -50 9 -15 5 -20 4 -14 -2z"/>
<path d="M1488 1150 c105 -6 127 -10 153 -29 27 -20 29 -20 18 -3 -19 30 -76
42 -190 40 l-104 -1 123 -7z"/>
<path d="M1895 1113 c17 -41 35 -64 35 -46 0 20 -30 83 -40 83 -6 0 -3 -16 5
-37z"/>
<path d="M2155 968 c-72 -245 -243 -426 -480 -506 -248 -85 -504 -34 -714 143
-44 36 -61 43 -61 25 0 -5 6 -10 14 -10 8 0 16 -4 18 -8 5 -14 120 -98 168
-123 118 -61 232 -84 386 -77 154 7 266 46 389 134 150 107 270 286 300 447
11 57 0 44 -20 -25z"/>
<path d="M1886 955 c-15 -95 -111 -174 -223 -183 -29 -3 -56 -9 -60 -15 -4 -7
14 -8 55 -5 83 8 165 49 201 102 38 55 64 146 42 146 -5 0 -12 -20 -15 -45z"/>
<path d="M2445 975 c17 -14 36 -25 43 -25 6 0 12 -4 12 -8 0 -7 43 -32 55 -32
2 0 3 9 2 19 -1 14 -5 17 -13 10 -9 -7 -18 -4 -32 12 -22 23 -68 49 -86 49 -6
-1 3 -12 19 -25z"/>
<path d="M1672 930 c-12 -16 -36 -37 -53 -46 -17 -8 -28 -18 -25 -21 8 -9 73
35 91 63 24 36 13 40 -13 4z"/>
<path d="M2326 949 c-3 -8 -15 -47 -27 -86 -13 -40 -27 -73 -31 -73 -4 0 -8
-6 -8 -14 0 -38 -82 -157 -170 -246 -114 -116 -211 -179 -347 -225 -138 -47
-190 -55 -334 -50 -113 4 -137 8 -245 43 -116 38 -222 98 -332 188 -17 15 -32
22 -32 17 0 -11 75 -75 135 -115 251 -168 615 -197 888 -69 215 100 360 245
458 457 40 87 66 170 56 181 -4 3 -9 0 -11 -8z"/>
<path d="M998 828 c-17 -15 -80 -129 -74 -135 2 -3 21 25 41 61 25 44 43 66
55 66 10 0 22 5 25 10 9 14 -28 12 -47 -2z"/>
<path d="M2502 834 c5 -18 79 -96 85 -90 3 3 -16 27 -42 53 -26 26 -45 43 -43
37z"/>
<path d="M1067 813 c-4 -3 -7 -24 -7 -45 l0 -39 76 2 c123 3 155 17 42 18 -89
1 -97 3 -103 22 -5 14 -1 25 12 34 15 12 15 14 2 15 -9 0 -19 -3 -22 -7z"/>
<path d="M1470 743 c6 -3 10 -44 10 -99 l0 -94 54 0 54 0 -5 88 c-6 117 -11
126 -12 22 l-1 -86 -34 -2 c-32 -2 -35 0 -41 30 -3 18 -6 57 -8 87 -1 35 -7
55 -15 57 -7 1 -8 0 -2 -3z"/>
<path d="M1282 637 c3 -92 4 -98 23 -93 11 3 36 6 55 6 l35 0 -6 85 c-6 101
-21 128 -19 35 3 -106 4 -102 -32 -98 l-33 3 -3 70 c-2 39 -7 74 -13 80 -6 6
-9 -23 -7 -88z"/>
</g>
</svg>
